<svg width="36" height="36" viewBox="0 0 36 36" fill="none" xmlns="http://www.w3.org/2000/svg">
<path opacity="0.4" d="M18.0001 11.835L16.3951 14.625C16.0351 15.24 16.3351 15.75 17.0401 15.75H18.9451C19.6651 15.75 19.9501 16.26 19.5901 16.875L18.0001 19.665" stroke="#292D32" stroke-width="1.5" stroke-linecap="round" stroke-linejoin="round"/>
<path d="M12.45 27.06V25.32C9.00004 23.235 6.16504 19.17 6.16504 14.85C6.16504 7.425 12.99 1.605 20.7 3.285C24.09 4.035 27.06 6.285 28.605 9.39C31.74 15.69 28.44 22.38 23.595 25.305V27.045C23.595 27.48 23.76 28.485 22.155 28.485H13.89C12.24 28.5 12.45 27.855 12.45 27.06Z" stroke="#292D32" stroke-width="1.5" stroke-linecap="round" stroke-linejoin="round"/>
<path opacity="0.4" d="M12.75 33C16.185 32.025 19.815 32.025 23.25 33" stroke="#292D32" stroke-width="1.5" stroke-linecap="round" stroke-linejoin="round"/>
</svg>
