<svg width="50" height="50" viewBox="0 0 50 50" fill="none" xmlns="http://www.w3.org/2000/svg">
<path opacity="0.4" d="M39.7292 41.2916C39.3333 41.2916 38.9375 41.1457 38.625 40.8332C38.0208 40.229 38.0208 39.229 38.625 38.6249C46.1458 31.104 46.1458 18.875 38.625 11.375C38.0208 10.7708 38.0208 9.77079 38.625 9.16663C39.2292 8.56246 40.2292 8.56246 40.8333 9.16663C49.5625 17.8958 49.5625 32.104 40.8333 40.8332C40.5208 41.1457 40.125 41.2916 39.7292 41.2916Z" fill="#845CA7"/>
<path opacity="0.4" d="M10.2709 41.2916C9.87502 41.2916 9.47919 41.1457 9.16669 40.8332C0.43752 32.104 0.43752 17.8958 9.16669 9.16663C9.77085 8.56246 10.7708 8.56246 11.375 9.16663C11.9792 9.77079 11.9792 10.7708 11.375 11.375C3.85418 18.8958 3.85418 31.1249 11.375 38.6249C11.9792 39.229 11.9792 40.229 11.375 40.8332C11.0625 41.1457 10.6667 41.2916 10.2709 41.2916Z" fill="#845CA7"/>
<path opacity="0.4" d="M25 47.3125C22.3959 47.2917 19.9167 46.875 17.6042 46.0625C16.7917 45.7708 16.3542 44.875 16.6459 44.0625C16.9375 43.25 17.8126 42.8125 18.6459 43.1042C20.6459 43.7917 22.7709 44.1667 25.0209 44.1667C27.2501 44.1667 29.3959 43.7917 31.375 43.1042C32.1875 42.8333 33.0834 43.25 33.375 44.0625C33.6667 44.875 33.2292 45.7708 32.4167 46.0625C30.0834 46.875 27.6042 47.3125 25 47.3125Z" fill="#845CA7"/>
<path opacity="0.4" d="M31.875 6.95837C31.7083 6.95837 31.5208 6.93746 31.3542 6.87496C29.3542 6.18746 27.2083 5.81244 24.9792 5.81244C22.75 5.81244 20.625 6.18746 18.625 6.87496C17.8125 7.14579 16.9167 6.72921 16.625 5.91671C16.3334 5.10421 16.7709 4.20833 17.5834 3.91666C19.8959 3.10416 22.3958 2.68744 24.9792 2.68744C27.5625 2.68744 30.0625 3.10416 32.375 3.91666C33.1875 4.20833 33.625 5.10421 33.3334 5.91671C33.125 6.56254 32.5208 6.95837 31.875 6.95837Z" fill="#845CA7"/>
<path d="M18.2083 25V21.5209C18.2083 17.1876 21.2709 15.4167 25.0209 17.5834L28.0416 19.3334L31.0625 21.0833C34.8125 23.25 34.8125 26.7917 31.0625 28.9584L28.0416 30.7083L25.0209 32.4584C21.2709 34.6251 18.2083 32.8542 18.2083 28.5209V25Z" fill="#845CA7"/>
</svg>
