<svg width="251" height="73" viewBox="0 0 251 73" fill="none" xmlns="http://www.w3.org/2000/svg">
<path d="M248.741 63.9268C248.741 67.7776 245.557 70.8969 241.618 70.8969H8.52171C4.58503 70.8969 1.38962 67.7776 1.38962 63.9268V8.34292C1.38962 4.49392 4.58503 1.36377 8.52171 1.36377H241.616C245.557 1.36377 248.739 4.49392 248.739 8.34292L248.741 63.9268Z" fill="white"/>
<path d="M240.866 1.44733C245.156 1.44733 248.646 4.85032 248.646 9.03236V63.2273C248.646 67.4093 245.156 70.8123 240.866 70.8123H9.26409C4.97482 70.8123 1.48457 67.4093 1.48457 63.2273V9.03236C1.48457 4.85032 4.97482 1.44733 9.26409 1.44733H240.866ZM240.866 -0.0001297H9.26409C4.17116 -0.0001297 0 4.06675 0 9.03236V63.2273C0 68.1929 4.17116 72.2598 9.26409 72.2598H240.866C245.959 72.2598 250.13 68.1929 250.13 63.2273V9.03236C250.13 4.06675 245.959 -0.0001297 240.866 -0.0001297Z" fill="#161616"/>
<path d="M55.8217 35.7397C55.768 29.9174 60.7113 27.0848 60.9373 26.9529C58.1377 22.9732 53.7984 22.4294 52.2735 22.3861C48.6291 22.0121 45.0939 24.5123 43.2374 24.5123C41.3438 24.5123 38.4849 22.4222 35.4036 22.4836C31.4386 22.5432 27.7293 24.7815 25.6949 28.2572C21.4964 35.3441 24.6277 45.7585 28.6501 51.4869C30.6623 54.2924 33.0135 57.4249 36.091 57.3147C39.1019 57.1937 40.2265 55.4432 43.8599 55.4432C47.4599 55.4432 48.516 57.3147 51.6547 57.2443C54.886 57.1937 56.9204 54.4261 58.8622 51.5953C61.1875 48.3798 62.1213 45.213 62.1583 45.0504C62.0824 45.0251 55.8828 42.7182 55.8217 35.7397Z" fill="black"/>
<path d="M49.8927 18.6177C51.512 16.6432 52.62 13.957 52.3125 11.231C49.9686 11.3321 47.0375 12.8116 45.3496 14.7428C43.8562 16.4445 42.5222 19.2337 42.8668 21.8568C45.4996 22.0483 48.2029 20.5615 49.8927 18.6177Z" fill="black"/>
<path d="M90.8807 18.0816C90.8807 20.2079 90.2266 21.8084 88.9204 22.8833C87.7105 23.8751 85.9911 24.3719 83.764 24.3719C82.6597 24.3719 81.7148 24.3249 80.9236 24.2309V12.6134C81.9556 12.4508 83.0673 12.3677 84.268 12.3677C86.3894 12.3677 87.9884 12.8175 89.0668 13.7171C90.2748 14.7342 90.8807 16.1884 90.8807 18.0816ZM88.8333 18.134C88.8333 16.7557 88.459 15.6989 87.7105 14.9618C86.962 14.2266 85.8688 13.858 84.4292 13.858C83.8177 13.858 83.2971 13.8978 82.8654 13.9809V22.8128C83.1044 22.849 83.5416 22.8652 84.1772 22.8652C85.6631 22.8652 86.81 22.4624 87.6179 21.6567C88.4257 20.851 88.8333 19.6768 88.8333 18.134Z" fill="black"/>
<path d="M101.736 19.9385C101.736 21.2482 101.353 22.3213 100.586 23.1631C99.7816 24.0284 98.7162 24.4602 97.3859 24.4602C96.1037 24.4602 95.0828 24.0465 94.3213 23.2155C93.5617 22.3863 93.1818 21.3404 93.1818 20.0794C93.1818 18.7607 93.5728 17.6786 94.3584 16.8386C95.144 15.9986 96.2001 15.5776 97.5304 15.5776C98.8126 15.5776 99.8427 15.9913 100.623 16.8205C101.364 17.6262 101.736 18.6667 101.736 19.9385ZM99.7223 19.9999C99.7223 19.2141 99.5481 18.5403 99.2017 17.9785C98.794 17.2992 98.2141 16.9596 97.46 16.9596C96.68 16.9596 96.0871 17.2992 95.6794 17.9785C95.3311 18.5403 95.1588 19.225 95.1588 20.0343C95.1588 20.8201 95.333 21.4939 95.6794 22.0557C96.1 22.735 96.6855 23.0746 97.4415 23.0746C98.1826 23.0746 98.7644 22.7296 99.1831 22.0377C99.5426 21.465 99.7223 20.7858 99.7223 19.9999Z" fill="black"/>
<path d="M116.292 15.7505L113.559 24.2663H111.78L110.648 20.5684C110.361 19.6453 110.128 18.7276 109.946 17.8171H109.911C109.742 18.7529 109.509 19.6688 109.209 20.5684L108.006 24.2663H106.207L103.637 15.7505H105.633L106.62 19.7988C106.859 20.7563 107.056 21.6686 107.213 22.5321H107.248C107.393 21.8203 107.632 20.9135 107.969 19.8169L109.209 15.7523H110.791L111.979 19.7302C112.266 20.7003 112.499 21.6343 112.679 22.5339H112.733C112.864 21.6577 113.063 20.7238 113.326 19.7302L114.386 15.7523H116.292V15.7505Z" fill="black"/>
<path d="M126.358 24.2669H124.417V19.3894C124.417 17.8864 123.831 17.1349 122.656 17.1349C122.08 17.1349 121.615 17.3408 121.254 17.7545C120.896 18.1682 120.715 18.656 120.715 19.2142V24.2651H118.773V18.1845C118.773 17.4366 118.749 16.6255 118.703 15.7475H120.409L120.5 17.0789H120.554C120.78 16.6652 121.117 16.3238 121.56 16.051C122.086 15.733 122.675 15.5723 123.32 15.5723C124.135 15.5723 124.813 15.8288 125.352 16.3436C126.023 16.9741 126.358 17.9153 126.358 19.1654V24.2669Z" fill="black"/>
<path d="M131.713 24.267H129.773V11.8438H131.713V24.267Z" fill="black"/>
<path d="M143.145 19.9385C143.145 21.2482 142.761 22.3213 141.994 23.1631C141.19 24.0284 140.123 24.4602 138.795 24.4602C137.511 24.4602 136.49 24.0465 135.73 23.2155C134.97 22.3863 134.591 21.3404 134.591 20.0794C134.591 18.7607 134.981 17.6786 135.767 16.8386C136.553 15.9986 137.609 15.5776 138.937 15.5776C140.221 15.5776 141.25 15.9913 142.031 16.8205C142.773 17.6262 143.145 18.6667 143.145 19.9385ZM141.129 19.9999C141.129 19.2141 140.955 18.5403 140.608 17.9785C140.203 17.2992 139.621 16.9596 138.869 16.9596C138.087 16.9596 137.494 17.2992 137.088 17.9785C136.74 18.5403 136.567 19.225 136.567 20.0343C136.567 20.8201 136.742 21.4939 137.088 22.0557C137.509 22.735 138.094 23.0746 138.85 23.0746C139.591 23.0746 140.171 22.7296 140.59 22.0377C140.951 21.465 141.129 20.7858 141.129 19.9999Z" fill="black"/>
<path d="M152.542 24.2669H150.799L150.654 23.286H150.601C150.004 24.0682 149.154 24.4602 148.049 24.4602C147.225 24.4602 146.558 24.2019 146.056 23.6888C145.6 23.2227 145.372 22.6428 145.372 21.9546C145.372 20.914 145.817 20.121 146.712 19.5718C147.605 19.0226 148.861 18.7535 150.478 18.7661V18.6071C150.478 17.4853 149.874 16.9253 148.665 16.9253C147.803 16.9253 147.043 17.1366 146.387 17.5558L145.993 16.3129C146.804 15.8233 147.807 15.5776 148.989 15.5776C151.271 15.5776 152.416 16.7519 152.416 19.1003V22.2364C152.416 23.0872 152.459 23.7647 152.542 24.2669ZM150.527 21.3404V20.027C148.385 19.9909 147.314 20.5636 147.314 21.7432C147.314 22.1876 147.436 22.52 147.686 22.7422C147.936 22.9644 148.255 23.0746 148.635 23.0746C149.061 23.0746 149.459 22.9427 149.823 22.6808C150.188 22.417 150.412 22.0828 150.495 21.6728C150.515 21.5806 150.527 21.4686 150.527 21.3404Z" fill="black"/>
<path d="M163.576 24.267H161.853L161.762 22.8995H161.708C161.158 23.9401 160.221 24.4603 158.903 24.4603C157.851 24.4603 156.974 24.0575 156.28 23.2518C155.585 22.4461 155.238 21.4001 155.238 20.1157C155.238 18.7373 155.614 17.6209 156.37 16.7683C157.102 15.9734 157.999 15.576 159.066 15.576C160.239 15.576 161.06 15.9608 161.527 16.7321H161.564V11.8438H163.507V21.9728C163.507 22.802 163.53 23.5661 163.576 24.267ZM161.564 20.6757V19.2558C161.564 19.0101 161.545 18.8114 161.51 18.6597C161.401 18.2044 161.165 17.8214 160.808 17.5125C160.447 17.2036 160.011 17.0483 159.509 17.0483C158.785 17.0483 158.218 17.3283 157.801 17.8901C157.388 18.4519 157.178 19.1691 157.178 20.0452C157.178 20.8871 157.376 21.5699 157.775 22.0956C158.195 22.6556 158.762 22.9356 159.472 22.9356C160.109 22.9356 160.619 22.7026 161.006 22.2347C161.38 21.803 161.564 21.2827 161.564 20.6757Z" fill="black"/>
<path d="M180.183 19.9385C180.183 21.2482 179.799 22.3213 179.032 23.1631C178.228 24.0284 177.165 24.4602 175.832 24.4602C174.552 24.4602 173.531 24.0465 172.768 23.2155C172.008 22.3863 171.628 21.3404 171.628 20.0794C171.628 18.7607 172.019 17.6786 172.805 16.8386C173.59 15.9986 174.647 15.5776 175.979 15.5776C177.259 15.5776 178.291 15.9913 179.069 16.8205C179.81 17.6262 180.183 18.6667 180.183 19.9385ZM178.171 19.9999C178.171 19.2141 177.996 18.5403 177.65 17.9785C177.241 17.2992 176.662 16.9596 175.906 16.9596C175.128 16.9596 174.535 17.2992 174.126 17.9785C173.778 18.5403 173.605 19.225 173.605 20.0343C173.605 20.8201 173.779 21.4939 174.126 22.0557C174.547 22.735 175.132 23.0746 175.888 23.0746C176.629 23.0746 177.213 22.7296 177.631 22.0377C177.989 21.465 178.171 20.7858 178.171 19.9999Z" fill="black"/>
<path d="M190.623 24.2669H188.684V19.3894C188.684 17.8864 188.098 17.1349 186.921 17.1349C186.345 17.1349 185.88 17.3408 185.521 17.7545C185.161 18.1682 184.982 18.656 184.982 19.2142V24.2651H183.038V18.1845C183.038 17.4366 183.016 16.6255 182.969 15.7475H184.674L184.765 17.0789H184.819C185.046 16.6652 185.384 16.3238 185.825 16.051C186.353 15.733 186.94 15.5723 187.587 15.5723C188.4 15.5723 189.078 15.8288 189.617 16.3436C190.29 16.9741 190.623 17.9153 190.623 19.1654V24.2669Z" fill="black"/>
<path d="M203.691 17.1688H201.553V21.3057C201.553 22.3571 201.933 22.8828 202.685 22.8828C203.034 22.8828 203.323 22.8539 203.551 22.7942L203.601 24.2304C203.217 24.3713 202.713 24.4418 202.092 24.4418C201.325 24.4418 200.729 24.2142 200.297 23.7589C199.863 23.3037 199.649 22.5377 199.649 21.4629V17.1688H198.372V15.7507H199.649V14.1899L201.551 13.6299V15.7489H203.69V17.1688H203.691Z" fill="black"/>
<path d="M213.971 24.267H212.027V19.4256C212.027 17.8991 211.442 17.135 210.269 17.135C209.368 17.135 208.753 17.5776 208.416 18.4628C208.359 18.6488 208.325 18.8764 208.325 19.1438V24.2652H206.385V11.8438H208.325V16.976H208.362C208.974 16.0421 209.85 15.576 210.986 15.576C211.79 15.576 212.455 15.8325 212.983 16.3473C213.641 16.9887 213.971 17.9425 213.971 19.2034V24.267Z" fill="black"/>
<path d="M224.574 19.6058C224.574 19.9454 224.549 20.2308 224.502 20.4639H218.679C218.705 21.3057 218.983 21.947 219.522 22.3914C220.015 22.7888 220.65 22.9875 221.428 22.9875C222.29 22.9875 223.076 22.8539 223.783 22.5847L224.087 23.8998C223.259 24.2503 222.284 24.4255 221.156 24.4255C219.803 24.4255 218.738 24.0371 217.967 23.2603C217.193 22.4835 216.809 21.4412 216.809 20.1333C216.809 18.8489 217.167 17.7794 217.888 16.9267C218.64 16.0163 219.657 15.561 220.941 15.561C222.197 15.561 223.151 16.0163 223.796 16.9267C224.317 17.6493 224.574 18.5436 224.574 19.6058ZM222.722 19.1162C222.736 18.5544 222.609 18.0703 222.345 17.662C222.008 17.1363 221.495 16.8726 220.8 16.8726C220.167 16.8726 219.65 17.1291 219.255 17.6439C218.933 18.054 218.742 18.5436 218.679 19.1162H222.722Z" fill="black"/>
<path d="M99.3945 56.9115H95.1868L92.8819 49.8499H84.8703L82.6747 56.9115H78.5781L86.5156 32.8706H91.4181L99.3945 56.9115ZM92.1871 46.8872L90.1026 40.6096C89.8822 39.9683 89.469 38.4581 88.8594 36.0808H88.7853C88.5426 37.1032 88.1516 38.6135 87.6143 40.6096L85.5669 46.8872H92.1871Z" fill="black"/>
<path d="M119.807 48.031C119.807 50.9792 118.99 53.3096 117.356 55.0203C115.892 56.5432 114.074 57.3037 111.905 57.3037C109.563 57.3037 107.88 56.4836 106.856 54.8433H106.782V63.9751H102.831V45.2833C102.831 43.4298 102.781 41.5276 102.685 39.5766H106.159L106.38 42.3243H106.454C107.771 40.254 109.77 39.2207 112.453 39.2207C114.55 39.2207 116.301 40.0282 117.702 41.645C119.107 43.2636 119.807 45.3917 119.807 48.031ZM115.783 48.1719C115.783 46.4846 115.394 45.0936 114.612 43.9989C113.757 42.8572 112.611 42.2863 111.173 42.2863C110.198 42.2863 109.313 42.6043 108.521 43.2311C107.728 43.8634 107.21 44.689 106.967 45.7115C106.845 46.1884 106.783 46.5786 106.783 46.8857V49.7761C106.783 51.037 107.18 52.101 107.973 52.97C108.766 53.8389 109.796 54.2724 111.063 54.2724C112.551 54.2724 113.709 53.7124 114.538 52.596C115.368 51.4778 115.783 50.0037 115.783 48.1719Z" fill="black"/>
<path d="M140.257 48.031C140.257 50.9792 139.439 53.3096 137.803 55.0203C136.342 56.5432 134.524 57.3037 132.354 57.3037C130.012 57.3037 128.33 56.4836 127.307 54.8433H127.233V63.9751H123.283V45.2833C123.283 43.4298 123.233 41.5276 123.137 39.5766H126.611L126.831 42.3243H126.905C128.221 40.254 130.22 39.2207 132.905 39.2207C135 39.2207 136.751 40.0282 138.155 41.645C139.554 43.2636 140.257 45.3917 140.257 48.031ZM136.232 48.1719C136.232 46.4846 135.841 45.0936 135.059 43.9989C134.205 42.8572 133.062 42.2863 131.622 42.2863C130.646 42.2863 129.762 42.6043 128.969 43.2311C128.176 43.8634 127.659 44.689 127.417 45.7115C127.296 46.1884 127.233 46.5786 127.233 46.8857V49.7761C127.233 51.037 127.63 52.101 128.419 52.97C129.212 53.8371 130.242 54.2724 131.513 54.2724C133.001 54.2724 134.159 53.7124 134.987 52.596C135.817 51.4778 136.232 50.0037 136.232 48.1719Z" fill="black"/>
<path d="M163.12 50.1703C163.12 52.2153 162.392 53.8791 160.93 55.1635C159.324 56.5671 157.088 57.2681 154.214 57.2681C151.561 57.2681 149.434 56.7695 147.823 55.7705L148.739 52.5603C150.473 53.5828 152.376 54.0959 154.449 54.0959C155.937 54.0959 157.095 53.7671 157.927 53.1131C158.755 52.4592 159.168 51.5812 159.168 50.4865C159.168 49.511 158.827 48.689 158.144 48.0224C157.464 47.3558 156.328 46.7362 154.742 46.1635C150.425 44.5937 148.268 42.294 148.268 39.2699C148.268 37.2936 149.024 35.6732 150.538 34.4123C152.046 33.1495 154.058 32.519 156.574 32.519C158.818 32.519 160.682 32.9002 162.17 33.6607L161.182 36.8004C159.793 36.0634 158.221 35.6949 156.463 35.6949C155.074 35.6949 153.988 36.0291 153.21 36.6939C152.552 37.2882 152.222 38.0126 152.222 38.8707C152.222 39.8209 152.598 40.6067 153.354 41.2246C154.012 41.7954 155.207 42.4132 156.941 43.0798C159.063 43.9126 160.621 44.8863 161.623 46.0027C162.622 47.1155 163.12 48.5084 163.12 50.1703Z" fill="black"/>
<path d="M176.181 42.468H171.827V50.8845C171.827 53.0252 172.594 54.0947 174.132 54.0947C174.838 54.0947 175.423 54.035 175.886 53.9158L175.996 56.8405C175.217 57.1242 174.193 57.2669 172.924 57.2669C171.364 57.2669 170.144 56.8026 169.264 55.8759C168.388 54.9473 167.947 53.3901 167.947 51.2025V42.4644H165.353V39.574H167.947V36.4L171.827 35.2583V39.574H176.181V42.468Z" fill="black"/>
<path d="M195.826 48.1021C195.826 50.7667 195.044 52.9543 193.484 54.6651C191.848 56.4264 189.677 57.3044 186.97 57.3044C184.361 57.3044 182.284 56.4607 180.735 54.7735C179.186 53.0862 178.412 50.9563 178.412 48.3893C178.412 45.7031 179.208 43.5027 180.807 41.792C182.403 40.0794 184.556 39.2231 187.263 39.2231C189.871 39.2231 191.971 40.0668 193.555 41.7559C195.07 43.3943 195.826 45.5098 195.826 48.1021ZM191.728 48.2267C191.728 46.628 191.378 45.2568 190.668 44.1133C189.84 42.7296 188.656 42.0395 187.122 42.0395C185.534 42.0395 184.328 42.7314 183.499 44.1133C182.79 45.2587 182.44 46.6515 182.44 48.299C182.44 49.8977 182.79 51.2689 183.499 52.4106C184.354 53.7944 185.547 54.4844 187.086 54.4844C188.595 54.4844 189.779 53.7799 190.633 52.3744C191.361 51.2093 191.728 49.8237 191.728 48.2267Z" fill="black"/>
<path d="M208.666 42.9638C208.275 42.8933 207.858 42.8572 207.421 42.8572C206.032 42.8572 204.957 43.3684 204.201 44.3927C203.543 45.296 203.213 46.4377 203.213 47.816V56.9117H199.265L199.302 45.0358C199.302 43.0378 199.252 41.2187 199.154 39.5784H202.595L202.739 42.8951H202.848C203.265 41.7552 203.923 40.8375 204.824 40.1492C205.704 39.5296 206.654 39.2207 207.679 39.2207C208.044 39.2207 208.374 39.246 208.666 39.2912V42.9638Z" fill="black"/>
<path d="M226.333 47.4243C226.333 48.1144 226.287 48.6961 226.188 49.1712H214.338C214.384 50.8837 214.957 52.1934 216.057 53.0967C217.056 53.9042 218.347 54.3089 219.933 54.3089C221.688 54.3089 223.289 54.0361 224.728 53.4887L225.347 56.1623C223.665 56.8777 221.679 57.2336 219.387 57.2336C216.63 57.2336 214.466 56.4423 212.891 54.8616C211.32 53.281 210.532 51.1583 210.532 48.4955C210.532 45.8815 211.264 43.7047 212.73 41.9687C214.264 40.1152 216.337 39.1885 218.946 39.1885C221.508 39.1885 223.448 40.1152 224.765 41.9687C225.809 43.441 226.333 45.2619 226.333 47.4243ZM222.566 46.4253C222.592 45.2836 222.335 44.2972 221.799 43.4645C221.115 42.3932 220.065 41.8585 218.651 41.8585C217.36 41.8585 216.309 42.3806 215.507 43.4283C214.849 44.2611 214.458 45.2601 214.338 46.4235H222.566V46.4253Z" fill="black"/>
</svg>
