<svg width="250" height="71" viewBox="0 0 250 71" fill="none" xmlns="http://www.w3.org/2000/svg">
<path d="M240.741 71H9.25926C4.16898 71 0 67.004 0 62.125V8.875C0 3.99597 4.16898 5.72205e-06 9.25926 5.72205e-06H240.741C245.831 5.72205e-06 250 3.99597 250 8.875V62.125C250 67.004 245.831 71 240.741 71Z" fill="#845CA7"/>
<path d="M19.3241 13.3814C18.7801 13.9272 18.4653 14.777 18.4653 15.8775V55.1317C18.4653 56.2322 18.7801 57.0819 19.3241 57.6277L19.4584 57.7476L42.4074 35.7597V35.2406L19.4584 13.2527L19.3241 13.3814Z" fill="url(#paint0_linear_68_830)"/>
<path d="M50.0486 43.0923L42.4074 35.7593V35.2401L50.0578 27.9072L50.2291 28.0026L59.2893 32.9437C61.8749 34.346 61.8749 36.6535 59.2893 38.0646L50.2291 42.9969L50.0486 43.0923Z" fill="url(#paint1_linear_68_830)"/>
<path d="M50.2292 42.9971L42.4074 35.5L19.3241 57.6276C20.1829 58.4929 21.5833 58.5972 23.1759 57.7319L50.2292 42.9971Z" fill="url(#paint2_linear_68_830)"/>
<path d="M50.2292 28.0028L23.1759 13.2681C21.5833 12.4117 20.1829 12.516 19.3241 13.3813L42.4074 35.5L50.2292 28.0028Z" fill="url(#paint3_linear_68_830)"/>
<path d="M87.8102 18.1823C87.8102 19.6645 87.3472 20.8515 86.4352 21.7368C85.3866 22.7862 84.0208 23.3143 82.3472 23.3143C80.7477 23.3143 79.3819 22.7774 78.2616 21.719C77.1389 20.6451 76.5787 19.3272 76.5787 17.7497C76.5787 16.1722 77.1389 14.8542 78.2616 13.7892C79.3819 12.722 80.7477 12.1851 82.3472 12.1851C83.1435 12.1851 83.9028 12.3426 84.6273 12.6355C85.3495 12.9306 85.9375 13.3299 86.3634 13.8225L85.3958 14.7588C84.6528 13.9179 83.6412 13.503 82.3472 13.503C81.1805 13.503 80.169 13.8935 79.3102 14.6812C78.4606 15.471 78.0347 16.4939 78.0347 17.7497C78.0347 19.0055 78.4606 20.0372 79.3102 20.8271C80.169 21.6059 81.1805 22.0052 82.3472 22.0052C83.5856 22.0052 84.6273 21.6059 85.4491 20.8182C85.9907 20.2968 86.2986 19.5779 86.3796 18.6594H82.3472V17.3769H87.7268C87.7916 17.6543 87.8102 17.9227 87.8102 18.1823Z" fill="white"/>
<path d="M96.3449 13.736H91.2916V17.1085H95.8472V18.391H91.2916V21.7635H96.3449V23.0703H89.8611V12.4292H96.3449V13.736Z" fill="white"/>
<path d="M102.368 23.0703H100.937V13.736H97.8379V12.4292H105.47V13.736H102.368V23.0703Z" fill="white"/>
<path d="M110.993 23.0703V12.4292H112.421V23.0703H110.993Z" fill="white"/>
<path d="M118.752 23.0703H117.333V13.736H114.222V12.4292H121.863V13.736H118.752V23.0703Z" fill="white"/>
<path d="M136.312 21.7013C135.218 22.7774 133.861 23.3143 132.243 23.3143C130.616 23.3143 129.259 22.7774 128.164 21.7013C127.072 20.6274 126.528 19.3095 126.528 17.7497C126.528 16.1899 127.072 14.872 128.164 13.7981C129.259 12.722 130.616 12.1851 132.243 12.1851C133.852 12.1851 135.208 12.722 136.303 13.807C137.405 14.8897 137.949 16.1988 137.949 17.7497C137.949 19.3095 137.405 20.6274 136.312 21.7013ZM129.222 20.8093C130.046 21.6059 131.049 22.0052 132.243 22.0052C133.428 22.0052 134.44 21.6059 135.255 20.8093C136.076 20.0128 136.493 18.99 136.493 17.7497C136.493 16.5094 136.076 15.4866 135.255 14.69C134.44 13.8935 133.428 13.4941 132.243 13.4941C131.049 13.4941 130.046 13.8935 129.222 14.69C128.4 15.4866 127.984 16.5094 127.984 17.7497C127.984 18.99 128.4 20.0128 129.222 20.8093Z" fill="white"/>
<path d="M139.956 23.0703V12.4292H141.692L147.09 20.7051H147.153L147.09 18.6594V12.4292H148.519V23.0703H147.028L141.375 14.3861H141.312L141.375 16.4407V23.0703H139.956Z" fill="white"/>
<path d="M126.176 38.6109C121.826 38.6109 118.273 41.7837 118.273 46.1613C118.273 50.5034 121.826 53.7095 126.176 53.7095C130.535 53.7095 134.088 50.5034 134.088 46.1613C134.088 41.7837 130.535 38.6109 126.176 38.6109ZM126.176 50.7364C123.789 50.7364 121.736 48.8482 121.736 46.1613C121.736 43.4389 123.789 41.584 126.176 41.584C128.562 41.584 130.625 43.4389 130.625 46.1613C130.625 48.8482 128.562 50.7364 126.176 50.7364ZM108.933 38.6109C104.574 38.6109 101.03 41.7837 101.03 46.1613C101.03 50.5034 104.574 53.7095 108.933 53.7095C113.289 53.7095 116.836 50.5034 116.836 46.1613C116.836 41.7837 113.289 38.6109 108.933 38.6109ZM108.933 50.7364C106.544 50.7364 104.484 48.8482 104.484 46.1613C104.484 43.4389 106.544 41.584 108.933 41.584C111.319 41.584 113.373 43.4389 113.373 46.1613C113.373 48.8482 111.319 50.7364 108.933 50.7364ZM88.4143 40.9251V44.1334H96.4074C96.1736 45.9261 95.5486 47.2441 94.5903 48.1626C93.4236 49.272 91.6065 50.5034 88.4143 50.5034C83.4954 50.5034 79.6435 46.6983 79.6435 41.9834C79.6435 37.2686 83.4954 33.4634 88.4143 33.4634C91.0741 33.4634 93.0093 34.4596 94.4375 35.751L96.7963 33.49C94.7986 31.6618 92.1412 30.2573 88.4143 30.2573C81.669 30.2573 76 35.518 76 41.9834C76 48.4489 81.669 53.7095 88.4143 53.7095C92.0602 53.7095 94.7986 52.5646 96.9514 50.4169C99.1574 48.3024 99.8449 45.3293 99.8449 42.9286C99.8449 42.1831 99.7801 41.4975 99.6643 40.9251H88.4143ZM172.317 43.4123C171.667 41.7238 169.66 38.6109 165.572 38.6109C161.521 38.6109 158.148 41.6706 158.148 46.1613C158.148 50.3903 161.486 53.7095 165.961 53.7095C169.579 53.7095 171.667 51.595 172.525 50.3636L169.84 48.6485C168.944 49.9044 167.725 50.7364 165.961 50.7364C164.208 50.7364 162.951 49.9665 162.146 48.4489L172.681 44.271L172.317 43.4123ZM161.576 45.9261C161.486 43.0151 163.935 41.5241 165.69 41.5241C167.065 41.5241 168.231 42.1831 168.62 43.1261L161.576 45.9261ZM153.014 53.2502H156.477V31.0627H153.014V53.2502ZM147.343 40.2927H147.227C146.449 39.4097 144.965 38.6109 143.086 38.6109C139.141 38.6109 135.535 41.9302 135.535 46.1857C135.535 50.4169 139.141 53.7095 143.086 53.7095C144.965 53.7095 146.449 52.9041 147.227 51.9944H147.343V53.0772C147.343 55.9638 145.734 57.5147 143.139 57.5147C141.023 57.5147 139.711 56.0503 139.169 54.8189L136.157 56.0237C137.025 58.025 139.324 60.4878 143.139 60.4878C147.199 60.4878 150.625 58.198 150.625 52.6268V39.0702H147.343V40.2927ZM143.382 50.7364C140.995 50.7364 138.998 48.8216 138.998 46.1857C138.998 43.5255 140.995 41.584 143.382 41.584C145.734 41.584 147.588 43.5255 147.588 46.1857C147.588 48.8216 145.734 50.7364 143.382 50.7364ZM188.53 31.0627H180.248V53.2502H183.701V44.8434H188.53C192.366 44.8434 196.127 42.1831 196.127 37.952C196.127 33.723 192.356 31.0627 188.53 31.0627ZM188.62 41.7571H183.701V34.149H188.62C191.199 34.149 192.671 36.2014 192.671 37.952C192.671 39.6693 191.199 41.7571 188.62 41.7571ZM209.97 38.5688C207.474 38.5688 204.88 39.6249 203.812 41.9657L206.877 43.1971C207.537 41.9657 208.75 41.5663 210.032 41.5663C211.824 41.5663 213.641 42.598 213.669 44.4196V44.6526C213.044 44.3065 211.706 43.7939 210.06 43.7939C206.759 43.7939 203.396 45.5356 203.396 48.7861C203.396 51.7592 206.099 53.674 209.139 53.674C211.463 53.674 212.745 52.6689 213.551 51.4996H213.669V53.2147H217.005V44.7036C217.005 40.7698 213.94 38.5688 209.97 38.5688ZM209.553 50.7275C208.424 50.7275 206.849 50.1906 206.849 48.8482C206.849 47.1309 208.812 46.472 210.512 46.472C212.032 46.472 212.745 46.7937 213.669 47.2175C213.398 49.272 211.553 50.7275 209.553 50.7275ZM229.157 39.0547L225.187 48.673H225.069L220.965 39.0547H217.241L223.407 52.4959L219.889 59.9753H223.498L233 39.0547H229.157ZM198.025 53.2502H201.488V31.0627H198.025V53.2502Z" fill="white"/>
<defs>
<linearGradient id="paint0_linear_68_830" x1="40.3698" y1="55.5404" x2="10.6078" y2="24.4898" gradientUnits="userSpaceOnUse">
<stop stop-color="#00A0FF"/>
<stop offset="0.0066" stop-color="#00A1FF"/>
<stop offset="0.2601" stop-color="#00BEFF"/>
<stop offset="0.5122" stop-color="#00D2FF"/>
<stop offset="0.7604" stop-color="#00DFFF"/>
<stop offset="1" stop-color="#00E3FF"/>
</linearGradient>
<linearGradient id="paint1_linear_68_830" x1="62.6562" y1="35.4972" x2="17.8472" y2="35.4972" gradientUnits="userSpaceOnUse">
<stop stop-color="#FFE000"/>
<stop offset="0.4087" stop-color="#FFBD00"/>
<stop offset="0.7754" stop-color="#FFA500"/>
<stop offset="1" stop-color="#FF9C00"/>
</linearGradient>
<linearGradient id="paint2_linear_68_830" x1="45.9759" y1="31.4244" x2="5.6162" y2="-10.6828" gradientUnits="userSpaceOnUse">
<stop stop-color="#FF3A44"/>
<stop offset="1" stop-color="#C31162"/>
</linearGradient>
<linearGradient id="paint3_linear_68_830" x1="13.5135" y1="70.6873" x2="31.5359" y2="51.8847" gradientUnits="userSpaceOnUse">
<stop stop-color="#32A071"/>
<stop offset="0.0685" stop-color="#2DA771"/>
<stop offset="0.4762" stop-color="#15CF74"/>
<stop offset="0.8009" stop-color="#06E775"/>
<stop offset="1" stop-color="#00F076"/>
</linearGradient>
</defs>
</svg>
