<svg width="110" height="35" viewBox="0 0 110 35" fill="none" xmlns="http://www.w3.org/2000/svg">
<path d="M105.926 34.3164H4.07407C1.83435 34.3164 0 32.3985 0 30.0567V4.4982C0 2.15641 1.83435 0.238457 4.07407 0.238457H105.926C108.166 0.238457 110 2.15641 110 4.4982V30.0567C110 32.3985 108.166 34.3164 105.926 34.3164Z" fill="black"/>
<path d="M8.50259 6.6611C8.26324 6.92308 8.12473 7.33095 8.12473 7.85916V26.7C8.12473 27.2282 8.26324 27.6361 8.50259 27.8981L8.56167 27.9556L18.6593 17.4021V17.1529L8.56167 6.59934L8.50259 6.6611Z" fill="url(#paint0_linear_285_573)"/>
<path d="M22.0214 20.9219L18.6592 17.4023V17.1531L22.0254 13.6335L22.1008 13.6792L26.0873 16.0509C27.225 16.7239 27.225 17.8314 26.0873 18.5087L22.1008 20.8761L22.0214 20.9219V20.9219Z" fill="url(#paint1_linear_285_573)"/>
<path d="M22.1008 20.876L18.6593 17.2776L8.50259 27.8982C8.88046 28.3135 9.49667 28.3636 10.1974 27.9482L22.1008 20.876" fill="url(#paint2_linear_285_573)"/>
<path d="M22.1008 13.6789L10.1974 6.60669C9.49667 6.19562 8.88046 6.24567 8.50259 6.661L18.6593 17.2773L22.1008 13.6789Z" fill="url(#paint3_linear_285_573)"/>
<path d="M38.6365 8.96544C38.6365 9.67681 38.4328 10.2466 38.0315 10.6715C37.5701 11.1752 36.9692 11.4286 36.2328 11.4286C35.529 11.4286 34.928 11.1709 34.4351 10.6629C33.9411 10.1475 33.6946 9.51494 33.6946 8.75777C33.6946 8.0006 33.9411 7.36803 34.4351 6.85686C34.928 6.34463 35.529 6.08691 36.2328 6.08691C36.5831 6.08691 36.9172 6.16252 37.236 6.3031C37.5538 6.44473 37.8125 6.63642 37.9999 6.87284L37.5741 7.32224C37.2472 6.91863 36.8021 6.71949 36.2328 6.71949C35.7194 6.71949 35.2743 6.90691 34.8965 7.28497C34.5227 7.66408 34.3353 8.15502 34.3353 8.75777C34.3353 9.36053 34.5227 9.85572 34.8965 10.2348C35.2743 10.6086 35.7194 10.8003 36.2328 10.8003C36.7777 10.8003 37.236 10.6086 37.5976 10.2306C37.8359 9.98032 37.9714 9.63528 38.007 9.1944H36.2328V8.57886H38.5998C38.6283 8.71198 38.6365 8.84084 38.6365 8.96544V8.96544Z" fill="white"/>
<path d="M42.3917 6.83135H40.1683V8.45005H42.1728V9.06558H40.1683V10.6843H42.3917V11.3115H39.5389V6.2041H42.3917V6.83135Z" fill="white"/>
<path d="M45.0419 11.3115H44.4125V6.83135H43.0487V6.2041H46.4067V6.83135H45.0419V11.3115V11.3115Z" fill="white"/>
<path d="M48.8369 11.3115V6.2041H49.4654V11.3115H48.8369Z" fill="white"/>
<path d="M52.251 11.3115H51.6266V6.83135H50.2578V6.2041H53.6199V6.83135H52.251V11.3115Z" fill="white"/>
<path d="M59.9775 10.6544C59.4957 11.1709 58.8988 11.4286 58.1869 11.4286C57.4709 11.4286 56.874 11.1709 56.3923 10.6544C55.9115 10.139 55.6722 9.50642 55.6722 8.75777C55.6722 8.00912 55.9115 7.37655 56.3923 6.86112C56.874 6.34463 57.4709 6.08691 58.1869 6.08691C58.8948 6.08691 59.4916 6.34463 59.9734 6.86538C60.4582 7.38507 60.6976 8.01338 60.6976 8.75777C60.6976 9.50642 60.4582 10.139 59.9775 10.6544ZM56.8577 10.2263C57.2203 10.6086 57.6613 10.8003 58.1869 10.8003C58.7084 10.8003 59.1535 10.6086 59.512 10.2263C59.8736 9.84401 60.0569 9.35307 60.0569 8.75777C60.0569 8.16247 59.8736 7.67154 59.512 7.28923C59.1535 6.90692 58.7084 6.71523 58.1869 6.71523C57.6613 6.71523 57.2203 6.90692 56.8577 7.28923C56.4962 7.67154 56.3128 8.16247 56.3128 8.75777C56.3128 9.35307 56.4962 9.84401 56.8577 10.2263V10.2263Z" fill="white"/>
<path d="M61.5806 11.3115V6.2041H62.3445L64.7197 10.1763H64.7472L64.7197 9.19444V6.2041H65.3481V11.3115H64.6922L62.205 7.14337H62.1775L62.205 8.1295V11.3115H61.5806V11.3115Z" fill="white"/>
<path d="M55.5174 18.7702C53.6036 18.7702 52.0402 20.2931 52.0402 22.3942C52.0402 24.4783 53.6036 26.0171 55.5174 26.0171C57.4353 26.0171 58.9987 24.4783 58.9987 22.3942C58.9987 20.2931 57.4353 18.7702 55.5174 18.7702ZM55.5174 24.5901C54.4673 24.5901 53.5639 23.6839 53.5639 22.3942C53.5639 21.0875 54.4673 20.1973 55.5174 20.1973C56.5675 20.1973 57.475 21.0875 57.475 22.3942C57.475 23.6839 56.5675 24.5901 55.5174 24.5901V24.5901ZM47.9305 18.7702C46.0126 18.7702 44.4532 20.2931 44.4532 22.3942C44.4532 24.4783 46.0126 26.0171 47.9305 26.0171C49.8473 26.0171 51.4077 24.4783 51.4077 22.3942C51.4077 20.2931 49.8473 18.7702 47.9305 18.7702ZM47.9305 24.5901C46.8793 24.5901 45.9729 23.6839 45.9729 22.3942C45.9729 21.0875 46.8793 20.1973 47.9305 20.1973C48.9805 20.1973 49.884 21.0875 49.884 22.3942C49.884 23.6839 48.9805 24.5901 47.9305 24.5901ZM38.9023 19.881V21.4209H42.4193C42.3164 22.2813 42.0414 22.9139 41.6197 23.3548C41.1064 23.8873 40.3069 24.4783 38.9023 24.4783C36.738 24.4783 35.0431 22.6519 35.0431 20.3889C35.0431 18.126 36.738 16.2996 38.9023 16.2996C40.0726 16.2996 40.9241 16.7777 41.5525 17.3975L42.5904 16.3124C41.7114 15.4349 40.5421 14.7608 38.9023 14.7608C35.9344 14.7608 33.44 17.2857 33.44 20.3889C33.44 23.4922 35.9344 26.0171 38.9023 26.0171C40.5065 26.0171 41.7114 25.4676 42.6586 24.4368C43.6293 23.4219 43.9318 21.9949 43.9318 20.8426C43.9318 20.4848 43.9032 20.1557 43.8523 19.881H38.9023ZM75.8195 21.0748C75.5333 20.2643 74.6503 18.7702 72.8516 18.7702C71.0692 18.7702 69.5852 20.2388 69.5852 22.3942C69.5852 24.424 71.0539 26.0171 73.0227 26.0171C74.6146 26.0171 75.5333 25.0022 75.9112 24.4112L74.7297 23.588C74.3355 24.1908 73.7988 24.5901 73.0227 24.5901C72.2517 24.5901 71.6986 24.2206 71.3442 23.4922L75.9794 21.4869L75.8195 21.0748V21.0748ZM71.0936 22.2813C71.0539 20.8841 72.1315 20.1685 72.9035 20.1685C73.5085 20.1685 74.0218 20.4848 74.193 20.9374L71.0936 22.2813V22.2813ZM67.3261 25.7967H68.8498V15.1473H67.3261V25.7967ZM64.8307 19.5775H64.7798C64.4376 19.1536 63.7847 18.7702 62.9577 18.7702C61.2221 18.7702 59.6353 20.3634 59.6353 22.4059C59.6353 24.4368 61.2221 26.0171 62.9577 26.0171C63.7847 26.0171 64.4376 25.6306 64.7798 25.1939H64.8307V25.7136C64.8307 27.0991 64.1229 27.8435 62.9811 27.8435C62.0502 27.8435 61.4727 27.1406 61.2343 26.5496L59.9093 27.1279C60.2912 28.0884 61.3026 29.2705 62.9811 29.2705C64.7676 29.2705 66.275 28.1715 66.275 25.4974V18.9907H64.8307V19.5775V19.5775ZM63.088 24.5901C62.038 24.5901 61.159 23.6711 61.159 22.4059C61.159 21.1291 62.038 20.1973 63.088 20.1973C64.1229 20.1973 64.9387 21.1291 64.9387 22.4059C64.9387 23.6711 64.1229 24.5901 63.088 24.5901V24.5901ZM82.9532 15.1473H79.309V25.7967H80.8286V21.7616H82.9532C84.6409 21.7616 86.296 20.4848 86.296 18.454C86.296 16.4242 84.6368 15.1473 82.9532 15.1473V15.1473ZM82.9929 20.2803H80.8286V16.6287H82.9929C84.1276 16.6287 84.7754 17.6137 84.7754 18.454C84.7754 19.2782 84.1276 20.2803 82.9929 20.2803ZM92.3867 18.75C91.2888 18.75 90.147 19.2569 89.6775 20.3804L91.026 20.9715C91.3163 20.3804 91.85 20.1887 92.4142 20.1887C93.2026 20.1887 94.0021 20.6839 94.0143 21.5582V21.6701C93.7393 21.5039 93.1506 21.2579 92.4265 21.2579C90.9741 21.2579 89.4941 22.0939 89.4941 23.654C89.4941 25.0811 90.6838 26.0001 92.0211 26.0001C93.0437 26.0001 93.6079 25.5177 93.9624 24.9565H94.0143V25.7796H95.482V21.6946C95.482 19.8064 94.1335 18.75 92.3867 18.75ZM92.2034 24.5859C91.7064 24.5859 91.0138 24.3281 91.0138 23.6839C91.0138 22.8596 91.8775 22.5433 92.6251 22.5433C93.2942 22.5433 93.6079 22.6977 94.0143 22.9011C93.8952 23.8873 93.0834 24.5859 92.2034 24.5859V24.5859ZM100.829 18.9832L99.0825 23.5997H99.0305L97.2247 18.9832H95.5859L98.2992 25.4346L96.7511 29.0245H98.339L102.52 18.9832H100.829V18.9832ZM87.1312 25.7967H88.6549V15.1473H87.1312V25.7967Z" fill="white"/>
<defs>
<linearGradient id="paint0_linear_285_573" x1="17.7627" y1="26.8962" x2="3.47916" y2="13.2352" gradientUnits="userSpaceOnUse">
<stop stop-color="#00A0FF"/>
<stop offset="0.0066" stop-color="#00A1FF"/>
<stop offset="0.2601" stop-color="#00BEFF"/>
<stop offset="0.5122" stop-color="#00D2FF"/>
<stop offset="0.7604" stop-color="#00DFFF"/>
<stop offset="1" stop-color="#00E3FF"/>
</linearGradient>
<linearGradient id="paint1_linear_285_573" x1="27.5687" y1="17.2765" x2="7.85276" y2="17.2765" gradientUnits="userSpaceOnUse">
<stop stop-color="#FFE000"/>
<stop offset="0.4087" stop-color="#FFBD00"/>
<stop offset="0.7754" stop-color="#FFA500"/>
<stop offset="1" stop-color="#FF9C00"/>
</linearGradient>
<linearGradient id="paint2_linear_285_573" x1="20.2294" y1="15.3214" x2="0.859744" y2="-3.20397" gradientUnits="userSpaceOnUse">
<stop stop-color="#FF3A44"/>
<stop offset="1" stop-color="#C31162"/>
</linearGradient>
<linearGradient id="paint3_linear_285_573" x1="5.94595" y1="34.1662" x2="14.5954" y2="25.8939" gradientUnits="userSpaceOnUse">
<stop stop-color="#32A071"/>
<stop offset="0.0685" stop-color="#2DA771"/>
<stop offset="0.4762" stop-color="#15CF74"/>
<stop offset="0.8009" stop-color="#06E775"/>
<stop offset="1" stop-color="#00F076"/>
</linearGradient>
</defs>
</svg>
