<svg width="30" height="30" viewBox="0 0 30 30" fill="none" xmlns="http://www.w3.org/2000/svg">
<path d="M15 11.0946C12.8496 11.0946 11.0947 12.8495 11.0947 14.9999C11.0947 17.1503 12.8496 18.9052 15 18.9052C17.1504 18.9052 18.9053 17.1503 18.9053 14.9999C18.9053 12.8495 17.1504 11.0946 15 11.0946ZM26.7129 14.9999C26.7129 13.3827 26.7275 11.7802 26.6367 10.1659C26.5459 8.29091 26.1182 6.62685 24.7471 5.25575C23.373 3.88173 21.7119 3.45693 19.8369 3.36611C18.2197 3.27529 16.6172 3.28993 15.0029 3.28993C13.3857 3.28993 11.7832 3.27529 10.1689 3.36611C8.29393 3.45693 6.62987 3.88466 5.25878 5.25575C3.88475 6.62978 3.45995 8.29091 3.36913 10.1659C3.27831 11.7831 3.29296 13.3856 3.29296 14.9999C3.29296 16.6142 3.27831 18.2196 3.36913 19.8339C3.45995 21.7089 3.88768 23.3729 5.25878 24.744C6.6328 26.1181 8.29393 26.5429 10.1689 26.6337C11.7861 26.7245 13.3887 26.7099 15.0029 26.7099C16.6201 26.7099 18.2226 26.7245 19.8369 26.6337C21.7119 26.5429 23.376 26.1151 24.7471 24.744C26.1211 23.37 26.5459 21.7089 26.6367 19.8339C26.7305 18.2196 26.7129 16.6171 26.7129 14.9999ZM15 21.0087C11.6748 21.0087 8.9912 18.3251 8.9912 14.9999C8.9912 11.6747 11.6748 8.99111 15 8.99111C18.3252 8.99111 21.0088 11.6747 21.0088 14.9999C21.0088 18.3251 18.3252 21.0087 15 21.0087ZM21.2549 10.1483C20.4785 10.1483 19.8515 9.52138 19.8515 8.74501C19.8515 7.96865 20.4785 7.34169 21.2549 7.34169C22.0312 7.34169 22.6582 7.96865 22.6582 8.74501C22.6584 8.92936 22.6223 9.11195 22.5518 9.28231C22.4814 9.45268 22.378 9.60747 22.2477 9.73783C22.1173 9.86818 21.9625 9.97154 21.7922 10.042C21.6218 10.1124 21.4392 10.1486 21.2549 10.1483Z" fill="black"/>
</svg>
