<svg width="30" height="30" viewBox="0 0 30 30" fill="none" xmlns="http://www.w3.org/2000/svg">
<g clip-path="url(#clip0_119_770)">
<path d="M5.88193 0.00732422C2.65042 0.00732422 0.00561523 2.65206 0.00561523 5.88363V24.1189C0.00561523 27.3504 2.65036 29.9942 5.88193 29.9942H24.1172C27.3487 29.9942 29.9925 27.3504 29.9925 24.1189V5.88363C29.9925 2.65212 27.3487 0.00732422 24.1172 0.00732422H5.88193ZM7.35991 4.95576C8.90935 4.95576 9.86373 5.97294 9.89319 7.31001C9.89319 8.61756 8.90928 9.66333 7.32993 9.66333H7.30087C5.78092 9.66333 4.79851 8.61762 4.79851 7.31001C4.79851 5.97297 5.81065 4.95576 7.35988 4.95576H7.35991ZM20.7123 11.2051C23.6922 11.2051 25.926 13.1527 25.926 17.3381V25.1516H21.3974V17.862C21.3974 16.0302 20.742 14.7805 19.1031 14.7805C17.852 14.7805 17.1063 15.6228 16.7789 16.4365C16.6592 16.7276 16.6298 17.1342 16.6298 17.5415V25.1516H12.1013C12.1013 25.1516 12.1607 12.8032 12.1013 11.5246H16.6308V13.4543C17.2326 12.5258 18.309 11.205 20.7123 11.205V11.2051ZM5.06563 11.5256H9.59421V25.1517H5.06563V11.5256V11.5256Z" fill="white"/>
</g>
<defs>
<clipPath id="clip0_119_770">
<rect width="30" height="30" fill="white"/>
</clipPath>
</defs>
</svg>
